<?xml version="1.0" encoding="UTF-8"?>
<svg id="Layer_1" xmlns="http://www.w3.org/2000/svg" version="1.1" viewBox="0 0 999 999">
  <!-- Generator: Adobe Illustrator 29.5.1, SVG Export Plug-In . SVG Version: 2.1.0 Build 141)  -->
  <defs>
    <style>
      .st0 {
        stroke: #d30000;
      }

      .st0, .st1 {
        fill: none;
      }

      .st1 {
        stroke: #000;
      }
    </style>
  </defs>
  <path class="st1" d="M983.1,503.8h-.9v12.3h1.7v12h-4.3v11.9h-3.7v12.2h.1v12.6h2.5v10.8h-9.7v12.6h1.7v11.2h-5.4v11.6h-3.4v12.7h1v11.5h-3.8v12h-2.2v11.5h-4v11.2h-4.6v10.6h-6.1v13.6h.9v7.4h-13.1v14.4h1.9v9.9h-7.5v8.6h-9.5v14.1h.1v10h-7.2v6.3h-12.6v11h-5.3v12h-4.2v8.5h-8.9v11.5h-5.1v10.1h-7.1v8.2h-9.2v4h-13.5v14.2h-2.9v4.8h-12.2v8h-9.1v8.8h-8.4v11.5h-6.4v5.8h-11v1.9h-13.7v14.4h-4.8v5.1h-11.3v.7h-13.9v9.5h-8.4v8h-9.5v1.3h-13v10.2h-8.5v3.5h-11.8v1.2h-12.7v6.2h-10.5v5.8h-10.8v5.1h-11.1v-1.3h-13.2v8.2h-10.2v4.3h-11.5v-2h-13v6.2h-11.1v6.1h-11.3v-2.9h-12.8v5.4h-11.6v2.3h-12.1v-5.2h-12.7v6.9h-11.8v-6.1h-12.4v-.7h-12.1v4.4h-12.2v-1.7h-12.1v-7h-11.6v3.7h-12.5v-5.7h-11.5v-1.2h-12v-.8h-12.1v-2.9h-11.8c0,.1-12.5.1-12.5.1v-5.7h-11.1v-.4h-12.5v-1h-12.5v-5.5h-11v-3.7h-11.6v-6.9h-10.4v-2.2h-12.3v-9.4h-9.1v-4.2h-11.4v-4.4h-11.4v-8.2h-9.3v-6.5h-10.2v-6.3h-10.3v-2.3h-13v-8.2h-9.2v-4h-12.1v-6.9h-10.2v-12.1h-5.9v-8.4h-8.8v-8.9h-8.3v-3.8h-13.1v-9.2h-8.1v-12.8h-4.2v-9.4h-7.6v-6.2h-11.3v-10.9h-5.8v-9.8h-7.1v-7.9h-9.7v-10.6h-6.1v-10.4h-6.2v-9.1h-8.4v-10.2h-6.6v-12.2h-3.1v-8h-11v-14h.9v-10.5h-6.2v-10.8h-5.7v-12.2h-2.2v-9.1h-10.3v-12.5h-1.1v-10.9h-6v-12.2h-1.8v-13h1.8v-11.9h-1.9v-11.6h-3.4v-11.1h-6.5v-12.1h-1.2v-11.9h-2.7v-12.5h2.4v-11.7h-6.3v-12.3h2.7v-12.2h3.8v-4.7h921.5v-19.6H17.5v-12.3h-1v-11.7h7.2v-11.8h3.6v-12.5h-2.5v-12.7h-2.7v-10.8h8.8v-12.2h.9v-11h6v-14.1h-6.3v-11.5h4.4v-11.6h4v-11.4h4.5v-9h10.7v-13.8h-1.8v-10.9h5.6v-11.4h4.5v-10.1h7.2v-10.4h6.4v-12.9h1.8v-9.7h7.8v-8.7h9.2v-9.2h8v-9.8h7.1v-12.8h3.1v-6.8h11.1v-8h9.3v-9.8h7.1v-13.5h3.1v-4.9h12.5v-9.1h8v-7.4h9.7v-9.6h7.6v-6.9h10.1v-7h9.9v-12.3h5.8v-5.4h11.2v-10.2h7.8c0-.1,14.5-.1,14.5-.1v-10.9h7.5v-2.7h12.5v-5.4h10.8v-5.3h10.9v-7.8h9.6v-6.5h10.4v-7.6h10v.8h13.5v-4.3h11.3v-2.9h11.8v-3.4h11.6v-10.8h9.5v1.8h13.1v.7h12.6v-9.7h10.3v1.6h12.7v-7.9h11.1v-.5h12.3v-.4h12.3v2.4h12.4v1.2h12.2v-5.2h12v1h12.2v2h12.1v-4h12.4v6.5h11.8v-1.6h12.4c0-.1,12.3-.1,12.3-.1v8.7h11v-2.2h12.7v5.9h11.2v.2h12.4v2.7h11.8v5.2h11.1v3.9h11.5v-2.8h13.8v4.5h11.4v9.6h9.3v-.3h13.4v5.6h10.9v4h11.7v9.8h8.7v7.5h9.7v6h10.5v3.7h12v10.3h7.8v.5h14.4v11.7h6.6v6.5h10.3v10.8h6.8v8.2h8.8v6.6h10.4v10h7.2v1.8h15.3v12.6h4.6v7.3h10.1v12.3h4.4v6.4h11.3v10.4h6.5v8.3h9.3v14.6h.4v5.4h13.9v12.8h2.5v12.1h3.3v8.6h9.5v10.2h6.8v13.4h.3v11h5v9.7h8v9.8h8.2v11.9h3v11.1h5.4v12.7h.4v11h5.6v11h6.1v12.8h-.8v12h2v11.7h3.7v11.7h4.6v13h-5.4v12.2h-.7v11.7h6.1v12h3.2v12.2h.5v12.2"/>
  <rect class="st0" x="54.9" y="331.1" width="891.6" height="152.8"/>
  <rect class="st0" x="55.6" y="503.5" width="891" height="169.9"/>
</svg>