<svg width="999" height="999" xmlns="http://www.w3.org/2000/svg">
    <path d="M 983.13 503.83 L 982.2 503.83 L 982.2 516.11 L 983.94 516.11 L 983.94 528.15 L 979.64 528.15 L 979.64 540.05 L 975.94 540.05 L 975.94 552.24 L 976.08 552.24 L 976.08 564.83 L 978.63 564.83 L 978.63 575.66 L 968.97 575.66 L 968.97 588.22 L 970.62 588.22 L 970.62 599.47 L 965.26 599.47 L 965.26 611.07 L 961.91 611.07 L 961.91 623.79 L 962.9 623.79 L 962.9 635.33 L 959.13 635.33 L 959.13 647.38 L 956.98 647.38 L 956.98 658.85 L 952.93 658.85 L 952.93 670.09 L 948.28 670.09 L 948.28 680.73 L 942.2 680.73 L 942.2 694.35 L 943.13 694.35 L 943.13 701.74 L 930.02 701.74 L 930.02 716.16 L 931.96 716.16 L 931.96 726.02 L 924.43 726.02 L 924.43 734.62 L 914.89 734.62 L 914.89 748.76 L 915 748.76 L 915 758.74 L 907.84 758.74 L 907.84 765.01 L 895.23 765.01 L 895.23 776.04 L 889.95 776.04 L 889.95 788.01 L 885.74 788.01 L 885.74 796.5 L 876.81 796.5 L 876.81 808.01 L 871.67 808.01 L 871.67 818.09 L 864.61 818.09 L 864.61 826.3 L 855.44 826.3 L 855.44 830.27 L 841.96 830.27 L 841.96 844.52 L 839.08 844.52 L 839.08 849.37 L 826.85 849.37 L 826.85 857.41 L 817.77 857.41 L 817.77 866.19 L 809.34 866.19 L 809.34 877.68 L 802.99 877.68 L 802.99 883.49 L 791.99 883.49 L 791.99 885.41 L 778.32 885.41 L 778.32 899.8 L 773.57 899.8 L 773.57 904.94 L 762.28 904.94 L 762.28 905.66 L 748.39 905.66 L 748.39 915.19 L 739.98 915.19 L 739.98 923.14 L 730.47 923.14 L 730.47 924.44 L 717.43 924.44 L 717.43 934.61 L 708.91 934.61 L 708.91 938.16 L 697.11 938.16 L 697.11 939.31 L 684.39 939.31 L 684.39 945.54 L 673.87 945.54 L 673.87 951.35 L 663.08 951.35 L 663.08 956.41 L 651.96 956.41 L 651.96 955.06 L 638.8 955.06 L 638.8 963.29 L 628.58 963.29 L 628.58 967.63 L 617.11 967.63 L 617.11 965.62 L 604.15 965.62 L 604.15 971.82 L 593.05 971.82 L 593.05 977.88 L 581.73 977.88 L 581.73 975.01 L 568.9 975.01 L 568.9 980.4 L 557.3 980.4 L 557.3 982.69 L 545.2 982.69 L 545.2 977.53 L 532.54 977.53 L 532.54 984.4 L 520.7 984.4 L 520.7 978.34 L 508.31 978.34 L 508.31 977.66 L 496.19 977.66 L 496.19 982.09 L 483.94 982.09 L 483.94 980.38 L 471.8 980.38 L 471.8 973.41 L 460.15 973.41 L 460.15 977.12 L 447.64 977.12 L 447.64 971.44 L 436.14 971.44 L 436.14 970.19 L 424.13 970.19 L 424.13 969.35 L 412.01 969.35 L 412.01 966.46 L 400.26 966.46 L 400.26 966.58 L 387.8 966.58 L 387.8 960.87 L 376.74 960.87 L 376.74 960.44 L 364.27 960.44 L 364.27 959.49 L 351.8 959.49 L 351.8 954.01 L 340.76 954.01 L 340.76 950.34 L 329.12 950.34 L 329.12 943.48 L 318.74 943.48 L 318.74 941.27 L 306.46 941.27 L 306.46 931.88 L 297.38 931.88 L 297.38 927.66 L 285.97 927.66 L 285.97 923.26 L 274.59 923.26 L 274.59 915.09 L 265.26 915.09 L 265.26 908.6 L 255.07 908.6 L 255.07 902.26 L 244.79 902.26 L 244.79 899.93 L 231.83 899.93 L 231.83 891.75 L 222.67 891.75 L 222.67 887.71 L 210.52 887.71 L 210.52 880.82 L 200.33 880.82 L 200.33 868.75 L 194.4 868.75 L 194.4 860.39 L 185.59 860.39 L 185.59 851.5 L 177.3 851.5 L 177.3 847.69 L 164.18 847.69 L 164.18 838.45 L 156.11 838.45 L 156.11 825.69 L 151.86 825.69 L 151.86 816.26 L 144.28 816.26 L 144.28 810.05 L 132.95 810.05 L 132.95 799.12 L 127.13 799.12 L 127.13 789.29 L 120.05 789.29 L 120.05 781.38 L 110.33 781.38 L 110.33 770.77 L 104.28 770.77 L 104.28 760.34 L 98.04 760.34 L 98.04 751.27 L 89.63 751.27 L 89.63 741.03 L 82.98 741.03 L 82.98 728.84 L 79.84 728.84 L 79.84 720.88 L 68.81 720.88 L 68.81 706.84 L 69.68 706.84 L 69.68 696.36 L 63.51 696.36 L 63.51 685.6 L 57.8 685.6 L 57.8 673.44 L 55.56 673.44 L 55.56 664.31 L 45.25 664.31 L 45.25 651.76 L 44.16 651.76 L 44.16 640.86 L 38.19 640.86 L 38.19 628.66 L 36.41 628.66 L 36.41 615.64 L 38.21 615.64 L 38.21 603.71 L 36.3 603.71 L 36.3 592.11 L 32.91 592.11 L 32.91 580.99 L 26.4 580.99 L 26.4 568.86 L 25.23 568.86 L 25.23 556.95 L 22.53 556.95 L 22.53 544.49 L 24.92 544.49 L 24.92 532.8 L 18.59 532.8 L 18.59 520.45 L 21.27 520.45 L 21.27 508.25 L 25.06 508.25 L 25.06 503.55 L 946.54 503.55 L 946.54 483.93 L 17.53 483.93 L 17.53 471.61 L 16.49 471.61 L 16.49 459.9 L 23.65 459.9 L 23.65 448.12 L 27.28 448.12 L 27.28 435.62 L 24.76 435.62 L 24.76 422.88 L 22.05 422.88 L 22.05 412.05 L 30.84 412.05 L 30.84 399.87 L 31.71 399.87 L 31.71 388.84 L 37.73 388.84 L 37.73 374.7 L 31.47 374.7 L 31.47 363.18 L 35.84 363.18 L 35.84 351.57 L 39.79 351.57 L 39.79 340.15 L 44.24 340.15 L 44.24 331.11 L 54.9 331.11 L 54.9 317.33 L 53.06 317.33 L 53.06 306.43 L 58.66 306.43 L 58.66 295.05 L 63.16 295.05 L 63.16 284.97 L 70.33 284.97 L 70.33 274.6 L 76.74 274.6 L 76.74 261.67 L 78.56 261.67 L 78.56 252.02 L 86.31 252.02 L 86.31 243.36 L 95.47 243.36 L 95.47 234.14 L 103.52 234.14 L 103.52 224.32 L 110.57 224.32 L 110.57 211.52 L 113.63 211.52 L 113.63 204.69 L 124.71 204.69 L 124.71 196.69 L 134.01 196.69 L 134.01 186.92 L 141.13 186.92 L 141.13 173.44 L 144.28 173.44 L 144.28 168.55 L 156.82 168.55 L 156.82 159.49 L 164.87 159.49 L 164.87 152.1 L 174.53 152.1 L 174.53 142.46 L 182.11 142.46 L 182.11 135.58 L 192.16 135.58 L 192.16 128.58 L 202.04 128.58 L 202.04 116.29 L 207.84 116.29 L 207.84 110.86 L 218.99 110.86 L 218.99 100.69 L 226.77 100.69 L 226.77 100.58 L 241.29 100.58 L 241.29 89.66 L 248.74 89.66 L 248.74 86.93 L 261.24 86.93 L 261.24 81.54 L 272.07 81.54 L 272.07 76.28 L 282.94 76.28 L 282.94 68.48 L 292.57 68.48 L 292.57 61.98 L 302.95 61.98 L 302.95 54.33 L 312.93 54.33 L 312.93 55.18 L 326.41 55.18 L 326.41 50.84 L 337.7 50.84 L 337.7 47.9 L 349.47 47.9 L 349.47 44.54 L 361.07 44.54 L 361.07 33.72 L 370.58 33.72 L 370.58 35.49 L 383.66 35.49 L 383.66 36.23 L 396.26 36.23 L 396.26 26.49 L 406.61 26.49 L 406.61 28.13 L 419.29 28.13 L 419.29 20.21 L 430.4 20.21 L 430.4 19.69 L 442.7 19.69 L 442.7 19.33 L 454.98 19.33 L 454.98 21.75 L 467.4 21.75 L 467.4 22.96 L 479.61 22.96 L 479.61 17.76 L 491.61 17.76 L 491.61 18.76 L 503.83 18.76 L 503.83 20.74 L 515.96 20.74 L 515.96 16.74 L 528.36 16.74 L 528.36 23.2 L 540.12 23.2 L 540.12 21.59 L 552.49 21.59 L 552.49 21.45 L 564.82 21.45 L 564.82 30.18 L 575.8 30.18 L 575.8 27.97 L 588.48 27.97 L 588.48 33.91 L 599.65 33.91 L 599.65 34.12 L 612.02 34.12 L 612.02 36.83 L 623.86 36.83 L 623.86 41.99 L 635 41.99 L 635 45.87 L 646.46 45.87 L 646.46 43.03 L 660.26 43.03 L 660.26 47.55 L 671.67 47.55 L 671.67 57.12 L 681 57.12 L 681 56.82 L 694.37 56.82 L 694.37 62.42 L 705.28 62.42 L 705.28 66.42 L 716.97 66.42 L 716.97 76.17 L 725.7 76.17 L 725.7 83.66 L 735.43 83.66 L 735.43 89.65 L 745.97 89.65 L 745.97 93.37 L 757.96 93.37 L 757.96 103.71 L 765.72 103.71 L 765.72 104.24 L 780.15 104.24 L 780.15 115.9 L 786.78 115.9 L 786.78 122.38 L 797.13 122.38 L 797.13 133.23 L 803.95 133.23 L 803.95 141.43 L 812.8 141.43 L 812.8 147.99 L 823.15 147.99 L 823.15 157.99 L 830.31 157.99 L 830.31 159.81 L 845.63 159.81 L 845.63 172.36 L 850.2 172.36 L 850.2 179.66 L 860.28 179.66 L 860.28 191.96 L 864.65 191.96 L 864.65 198.37 L 875.97 198.37 L 875.97 208.76 L 882.49 208.76 L 882.49 217.04 L 891.82 217.04 L 891.82 231.64 L 892.18 231.64 L 892.18 237 L 906.04 237 L 906.04 249.83 L 908.56 249.83 L 908.56 261.96 L 911.83 261.96 L 911.83 270.52 L 921.31 270.52 L 921.31 280.71 L 928.07 280.71 L 928.07 294.06 L 928.42 294.06 L 928.42 305.01 L 933.43 305.01 L 933.43 314.71 L 941.41 314.71 L 941.41 324.54 L 949.6 324.54 L 949.6 336.46 L 952.58 336.46 L 952.58 347.52 L 957.94 347.52 L 957.94 360.19 L 958.32 360.19 L 958.32 371.22 L 963.96 371.22 L 963.96 382.26 L 970.09 382.26 L 970.09 395.03 L 969.27 395.03 L 969.27 407.06 L 971.23 407.06 L 971.23 418.78 L 974.88 418.78 L 974.88 430.44 L 979.47 430.44 L 979.47 443.45 L 974.07 443.45 L 974.07 455.66 L 973.34 455.66 L 973.34 467.32 L 979.43 467.32 L 979.43 479.37 L 982.68 479.37 L 982.68 491.6 L 983.13 491.6 L 983.13 503.83" stroke="black"/>
  </svg>